<svg xmlns="http://www.w3.org/2000/svg" viewBox="0 0 64 64"><defs><style>.cls-1 {
        fill: #ba271f;
        fill-rule: evenodd;
      }</style></defs><path id="Globe" d="M420 1061a32 32 0 1 0 32 32 32 32 0 0 0-32-32zm17.972 31a39.822 39.822 0 0 0-3.614-15.67 39.54 39.54 0 0 0 7.515-3.85 29.888 29.888 0 0 1 8.1 19.52h-12zm-16.639 30.97H421v-11.93a38.032 38.032 0 0 1 9.606 1.46 38.315 38.315 0 0 1-9.273 10.47zm11.216-9.83a37.834 37.834 0 0 1 6.523 3.02 29.926 29.926 0 0 1-14.178 6.44 40.363 40.363 0 0 0 7.655-9.46zm-23.155-.64a38.025 38.025 0 0 1 9.606-1.46v11.93h-.333a38.3 38.3 0 0 1-9.273-10.47zm5.712 10.1a29.926 29.926 0 0 1-14.178-6.44 37.834 37.834 0 0 1 6.523-3.02 40.338 40.338 0 0 0 7.655 9.46zm-25.081-30.6a29.888 29.888 0 0 1 8.1-19.52 39.54 39.54 0 0 0 7.515 3.85 39.822 39.822 0 0 0-3.614 15.67h-12zm41.545-16.8a37.659 37.659 0 0 1-10.57 1.76v-13.93h.333a38.126 38.126 0 0 1 10.237 12.17zm-6.676-11.8a29.9 29.9 0 0 1 15.521 7.63 37.9 37.9 0 0 1-6.944 3.5 40.19 40.19 0 0 0-8.577-11.13zm-5.894-.37v13.93a37.659 37.659 0 0 1-10.57-1.76 38.126 38.126 0 0 1 10.237-12.17H419zm-12.471 11.5a37.9 37.9 0 0 1-6.944-3.5 29.9 29.9 0 0 1 15.521-7.63 40.19 40.19 0 0 0-8.577 11.13zm1 2.48a39.881 39.881 0 0 0 11.471 1.97V1092h-14.969a37.73 37.73 0 0 1 3.501-14.99zM419 1094v15.04a39.569 39.569 0 0 0-10.615 1.69 37.79 37.79 0 0 1-4.354-16.73H419zm2 15.04V1094h14.969a37.8 37.8 0 0 1-4.354 16.73 39.569 39.569 0 0 0-10.615-1.69zm0-17.04v-13.02a39.881 39.881 0 0 0 11.468-1.97 37.73 37.73 0 0 1 3.5 14.99H421zm-30.975 2h12a39.79 39.79 0 0 0 4.448 17.37 39.405 39.405 0 0 0-7.11 3.4 29.932 29.932 0 0 1-9.338-20.77zm50.609 20.77a39.437 39.437 0 0 0-7.11-3.4 39.79 39.79 0 0 0 4.448-17.37h12a29.932 29.932 0 0 1-9.338 20.77z" class="cls-1" transform="translate(-388 -1061)"/></svg>