<svg xmlns="http://www.w3.org/2000/svg" viewBox="0 0 40 64"><defs><style>.cls-1 {
        fill: #ba271f;
        fill-rule: evenodd;
      }</style></defs><path id="iPhone" d="M1200 816h-32a4 4 0 0 0-4 4v56a4 4 0 0 0 4 4h32a4 4 0 0 0 4-4v-56a4 4 0 0 0-4-4zm2 60a2 2 0 0 1-2 2h-32a2 2 0 0 1-2-2v-8h36v8zm0-10h-36v-40h36v40zm0-42h-36v-4a2 2 0 0 1 2-2h32a2 2 0 0 1 2 2v4zm-18 52a3 3 0 1 0-3-3 3 3 0 0 0 3 3zm0-4a1 1 0 1 1-1 1 1 1 0 0 1 1-1zm1-52h-6a1 1 0 0 0 0 2h6a1 1 0 0 0 0-2zm4 0a1 1 0 1 0 1 1 1 1 0 0 0-1-1z" class="cls-1" transform="translate(-1164 -816)"/></svg>